PathFileType	4	(X/Y/Z)	C:/Users/opensim2020/Desktop/walking_exp_matlab/subject01_walking10_straight_02.trc																																																																																																																															
DataRate	CameraRate	NumFrames	NumMarkers	Units	OrigDataRate	OrigDataStartFrame	OrigNumFrames																																																																																																																											
100	100	8	43	mm	100	2051	262																																																																																																																											
Frame#	Time	LFHD			RFHD			LBHD			RBHD			C7			T10			CLAV			STRN			RBAK			LSHO			LUPA			LELB			LFRM			LWRA			LWRB			LFIN			RSHO			RUPA			RELB			RFRM			RWRA			RWRB			RFIN			LASI			RASI			LPSI			RPSI			LTHI			LKNE			LTIB			LANK			LHEE			LTOE			RTHI			RKNE			RTIB			RANK			RHEE			RTOE			*39			*40			*41			*42		
		X1	Y1	Z1	X2	Y2	Z2	X3	Y3	Z3	X4	Y4	Z4	X5	Y5	Z5	X6	Y6	Z6	X7	Y7	Z7	X8	Y8	Z8	X9	Y9	Z9	X10	Y10	Z10	X11	Y11	Z11	X12	Y12	Z12	X13	Y13	Z13	X14	Y14	Z14	X15	Y15	Z15	X16	Y16	Z16	X17	Y17	Z17	X18	Y18	Z18	X19	Y19	Z19	X20	Y20	Z20	X21	Y21	Z21	X22	Y22	Z22	X23	Y23	Z23	X24	Y24	Z24	X25	Y25	Z25	X26	Y26	Z26	X27	Y27	Z27	X28	Y28	Z28	X29	Y29	Z29	X30	Y30	Z30	X31	Y31	Z31	X32	Y32	Z32	X33	Y33	Z33	X34	Y34	Z34	X35	Y35	Z35	X36	Y36	Z36	X37	Y37	Z37	X38	Y38	Z38	X39	Y39	Z39	X40	Y40	Z40	X41	Y41	Z41	X42	Y42	Z42	X43	Y43	Z43
																																																																																																																																		
33	0.32	-658.2785	1678.70105	1030.79578	-625.83948	1683.49329	1141.52502	-770.57147	1633.03931	1058.64526	-740.25092	1637.48706	1176.04285	-798.3703	1435.10547	1085.34851	-821.87268	1140.75122	1083.08521	-653.86871	1371.12988	1085.67786	-604.57166	1218.88574	1075.87952	-846.49213	1234.70264	1152.82068	-712.63452	1403.67834	924.64056	-718.62457	1220.75879	833.0592	-709.08801	1068.25415	827.68726	-639.93726	974.29968	808.63037	-532.91034	890.15979	835.27692	-581.17218	866.66071	807.91095	-510.91684	820.64368	801.04181	-721.07928	1390.3822	1237.14197	-781.9765	1186.18005	1327.23279	-780.71338	1062.198	1326.58472	-754.93396	944.54572	1356.96155	-672.61945	828.29254	1342.95105	-719.27411	828.76392	1378.7041	-682.77661	749.43585	1376.38794	-650.49188	934.35168	972.33344	-640.48352	941.56421	1187.43286	-833.45917	949.68494	1031.26831	-825.20734	955.37372	1177.04333	-692.07495	597.94543	913.97528	-715.05957	465.34418	921.42969	-858.3985	345.31461	910.77869	-1005.89117	178.53313	954.3985	-1054.28271	189.62675	1007.75555	-942.36542	45.2511	967.38593	-660.83997	610.90631	1245.0083	-628.98602	456.77664	1215.6908	-660.72485	282.25583	1221.51733	-660.25696	77.66433	1171.53271	-707.84601	38.94514	1121.68799	-518.71381	40.50936	1169.30493	-641.56226	1717.27344	1121.51257	-1973.12952	1023.5282	3101.94922	-2012.5127	1022.08691	3140.64087	NaN	NaN	NaN
34	0.33	-651.39276	1679.07507	1032.45422	-618.86371	1683.61133	1142.91907	-763.55377	1633.30969	1060.54602	-733.14313	1637.81189	1177.83887	-791.52399	1435.47815	1087.20984	-815.3858	1141.09155	1085.2074	-647.18097	1371.2793	1087.33594	-598.07617	1218.92822	1077.44153	-839.72565	1235.14233	1155.09583	-706.25464	1403.72021	926.30963	-713.86945	1220.49011	835.18274	-705.27734	1067.9718	829.96143	-637.55273	973.31348	810.54889	-531.23163	887.94397	836.76282	-580.18933	864.91016	809.64026	-510.13638	818.07745	802.85272	-713.87726	1390.59534	1238.72461	-773.98431	1186.4762	1329.54688	-772.46478	1062.44507	1328.85986	-746.10645	944.83856	1359.18738	-663.47174	828.90637	1344.49194	-709.82697	829.21576	1380.39355	-673.14325	750.03186	1377.76257	-644.55579	934.58685	973.84473	-634.48352	941.33099	1189.0387	-827.53479	949.45343	1032.88489	-819.37244	955.5058	1178.66797	-679.89795	598.06732	914.80664	-700.69897	465.3107	922.00714	-843.99463	346.69507	910.91632	-995.15381	183.57207	954.59821	-1043.36182	195.53371	1007.87775	-934.08417	48.99919	966.68652	-657.3241	610.66974	1246.05884	-626.27716	456.50894	1216.81396	-659.47607	282.03238	1221.9093	-660.21143	77.63314	1171.63257	-707.76398	39.03053	1121.69202	-518.51904	40.33897	1169.29651	-634.58722	1717.33789	1122.90576	-1973.17578	1023.40533	3101.8855	-2012.45313	1021.87079	3140.77148	NaN	NaN	NaN
35	0.34	-644.53351	1679.28967	1033.9447	-611.61365	1683.83875	1144.62061	-756.66913	1633.67517	1062.34265	-725.99109	1638.11658	1179.5813	-784.71161	1435.90625	1089.02771	-808.93793	1141.302	1087.40088	-640.55536	1371.33215	1088.74316	-591.72925	1218.8667	1078.93079	-833.13342	1235.61157	1157.2915	-699.87921	1403.74292	927.80463	-709.26581	1220.14709	837.29639	-701.75427	1067.78259	832.15717	-634.97583	972.45416	812.65106	-529.59088	885.78174	838.31512	-578.82544	863.21912	811.56946	-509.59473	815.49799	804.50415	-706.73132	1390.9408	1240.47498	-766.01868	1186.72595	1331.94702	-764.26208	1062.55383	1331.10229	-737.26636	945.07983	1361.20447	-654.23578	829.50702	1346.02759	-700.25256	829.50671	1382.14063	-663.29431	750.46051	1379.35168	-638.58539	934.54144	975.39697	-628.64063	941.18231	1190.5636	-821.6936	949.11841	1034.39087	-813.58008	955.58789	1180.09338	-668.02087	598.3692	915.78546	-686.4754	465.43274	922.67828	-829.56219	347.6311	910.80267	-984.21759	188.39804	955.56976	-1032.08337	200.01015	1009.25916	-923.39563	53.58945	965.30652	-653.64972	610.55408	1247.08752	-623.34918	455.94394	1217.69141	-657.73566	281.82257	1222.2312	-659.95892	77.56828	1171.57471	-707.76074	39.00272	1121.64172	-518.30194	40.13982	1169.26733	-627.47095	1717.54285	1124.48743	-1973.0498	1023.43134	3101.99097	-2012.5293	1021.93048	3140.55933	NaN	NaN	NaN
36	0.35	-637.60492	1679.38403	1035.46484	-604.44043	1684.02356	1146.01636	-749.87225	1634.12817	1064.0564	-718.8476	1638.37109	1181.20435	-777.94916	1436.31311	1090.81213	-802.72418	1141.70056	1089.35669	-633.93134	1371.38391	1090.177	-585.5105	1218.67285	1080.29553	-826.67316	1236.14417	1159.37878	-693.56616	1403.755	929.30176	-704.68988	1219.82019	839.34985	-697.67603	1067.24597	834.83118	-632.68842	971.40466	814.5144	-528.04993	883.56116	839.78253	-577.50848	861.4986	813.50195	-509.04486	812.9292	806.18628	-699.67065	1391.10388	1241.92188	-757.96301	1186.77698	1333.89185	-755.97827	1062.68005	1333.33044	-728.34717	945.33795	1363.20447	-644.99762	830.03381	1347.51868	-690.85144	829.93542	1384.12183	-653.62878	751.06122	1380.90796	-632.81085	934.55121	976.68762	-622.93744	941.10541	1192.13794	-815.92389	948.78033	1035.73621	-807.94403	955.68903	1181.38318	-656.33258	598.8468	916.71356	-672.31085	465.67847	923.48071	-815.38745	348.33054	911.00262	-972.39532	192.36674	956.67059	-1020.12476	203.4449	1011.17322	-911.71838	57.79293	963.31818	-649.07684	610.59351	1248.02393	-620.28094	455.65137	1218.47363	-655.58112	281.65652	1222.54578	-659.67474	77.54907	1171.50549	-707.70422	39.0949	1121.62427	-518.28625	39.90057	1168.98596	-620.29498	1717.86658	1125.90918	-1973.1792	1023.27954	3101.91895	-2012.54907	1022.02515	3140.604	NaN	NaN	NaN
37	0.36	-630.7738	1679.60291	1036.66614	-597.31866	1684.11938	1147.28223	-742.96191	1634.38257	1065.64087	-711.64661	1638.60754	1182.75256	-771.19073	1436.74829	1092.54871	-796.69055	1142.18384	1091.22656	-627.36218	1371.31958	1091.53076	-579.37244	1218.54041	1081.55933	-820.33942	1236.73071	1161.33252	-687.2326	1403.79529	930.66943	-700.14526	1219.53528	841.34491	-694.16302	1067.16553	836.66602	-630.06555	970.59906	816.59436	-526.56512	881.44287	841.30859	-576.42767	859.93103	815.40607	-508.55215	810.48395	807.74316	-692.59424	1391.22009	1243.46277	-749.94073	1186.94873	1336.07483	-747.76532	1062.7937	1335.46716	-719.37427	945.53326	1365.34424	-635.77338	830.55811	1349.10742	-681.29523	830.26373	1385.86365	-643.84558	751.60492	1382.67908	-627.1875	934.54517	977.83502	-617.44397	941.02942	1193.58423	-810.24188	948.52673	1036.94141	-802.65082	955.81873	1182.55322	-644.92645	599.73706	917.4989	-658.36487	466.30432	924.38489	-801.52191	349.24655	911.94061	-959.68097	195.84721	957.99219	-1007.34412	206.13475	1013.13293	-898.45929	61.78666	961.45642	-645.16241	610.29712	1248.95508	-616.93646	455.1105	1219.10901	-653.02618	281.30124	1222.65173	-659.36975	77.46747	1171.35425	-707.6286	39.2142	1121.58594	-517.9353	39.76945	1168.86536	-613.08527	1718.1178	1127.33752	-1973.1355	1023.35248	3101.89575	-2012.505	1022.15668	3140.65625	NaN	NaN	NaN
38	0.37	-623.94464	1679.70044	1038.01184	-590.13574	1684.24292	1148.54785	-736.01617	1634.61926	1067.19788	-704.46222	1638.84265	1184.26697	-764.49463	1437.17688	1094.15747	-790.72748	1142.64868	1092.99292	-620.83331	1371.30066	1092.77795	-573.26422	1218.3313	1082.79517	-814.00793	1237.34167	1163.1582	-680.93756	1403.87952	932.01514	-695.63519	1219.32703	843.22534	-690.66083	1067.08411	838.79559	-627.80078	969.70532	818.4325	-525.23584	879.31165	842.79584	-575.32025	858.37372	817.12183	-508.31363	807.96002	809.28589	-685.62079	1391.41992	1244.80481	-741.95544	1186.98486	1337.82495	-739.57782	1062.8656	1337.58215	-710.46362	945.77478	1367.24377	-626.51984	831.16064	1350.59644	-671.61163	830.61707	1387.51062	-634.06189	752.19635	1384.30347	-621.49872	934.57373	979.20197	-611.99731	940.98828	1195.20911	-804.62604	948.40735	1038.08496	-797.80573	956.03284	1183.78625	-633.67145	600.98798	918.02332	-644.43683	467.43359	925.15198	-787.83185	350.42676	913.20276	-946.33746	198.65157	959.46606	-993.87665	208.03252	1015.1767	-885.08325	64.69038	959.69012	-640.76276	609.80035	1249.71875	-613.62622	454.62372	1219.3158	-650.44861	281.11377	1222.72314	-658.78772	77.39185	1171.0304	-707.56927	39.31833	1121.54785	-517.88708	39.51831	1168.52185	-605.83759	1718.30054	1128.70386	-1973.08325	1023.32819	3101.98633	-2012.43384	1021.97906	3140.62256	NaN	NaN	NaN
39	0.38	-616.776	1680.07251	1039.50671	-582.91895	1684.30151	1149.49207	-729.17041	1634.88501	1068.69128	-697.20264	1639.08008	1185.6593	-757.80084	1437.60706	1095.70776	-784.9505	1143.18689	1094.60901	-614.35413	1371.25171	1094.07825	-567.27936	1218.17065	1084.01672	-807.78418	1237.98328	1164.87061	-674.67493	1403.95886	933.33875	-691.09845	1219.25696	845.00922	-687.28979	1067.07068	840.87665	-625.3999	968.89221	820.38965	-523.91815	877.27679	844.26532	-574.43793	856.96478	818.9032	-508.18463	805.89032	810.63416	-678.64343	1391.63098	1246.3396	-734.47723	1187.24109	1339.823	-731.0423	1062.97302	1339.46521	-701.5827	946.09088	1369.03992	-617.27307	831.78906	1352.07532	-662.46051	831.24652	1389.56433	-624.31146	753.03876	1386.12769	-615.7738	934.66534	980.44781	-606.63605	940.9834	1196.76428	-798.99237	948.50568	1039.14148	-792.29749	956.02319	1184.67871	-622.57074	602.50793	918.44171	-630.81409	468.83826	925.98456	-774.04492	351.80585	914.56329	-932.27258	200.42471	960.81366	-979.88629	209.08684	1017.2467	-870.48566	67.37028	958.43567	-636.38916	609.54779	1250.36011	-610.30646	454.20306	1219.68298	-647.91528	280.89099	1222.89026	-658.72943	77.36994	1171.01343	-707.49359	39.39946	1121.44873	-517.54559	39.40078	1168.34924	-598.7959	1718.18823	1129.48938	-1973.18433	1023.40094	3101.95898	-2012.50366	1022.08179	3140.59766	NaN	NaN	NaN
40	0.39	-609.96552	1679.9292	1040.39441	-575.65631	1684.40417	1150.55554	-722.15344	1635.13037	1070.1123	-689.94043	1639.32837	1186.95496	-751.18158	1438.06946	1097.2085	-778.74152	1143.62378	1096.10474	-607.97754	1371.28516	1095.21594	-561.41638	1217.98865	1085.11108	-801.66949	1238.62634	1166.52234	-668.46472	1404.09705	934.6123	-686.37921	1219.26904	846.59631	-683.55811	1066.86328	843.45355	-623.01807	968.27094	822.25934	-522.68036	875.34436	845.6402	-573.6156	855.64655	820.52478	-507.98468	803.81763	811.86456	-671.81549	1391.81909	1247.63452	-726.43713	1187.26526	1341.2384	-722.93195	1063.12036	1341.33557	-692.75958	946.5238	1371.0387	-608.09265	832.51508	1353.56348	-652.86707	831.76819	1391.04773	-614.52045	753.78937	1387.99829	-610.10767	935.01013	981.76611	-601.28949	941.10687	1198.46533	-793.38287	948.71204	1040.15503	-786.88568	955.92957	1185.64246	-611.729	604.1554	918.96179	-617.41351	470.64743	926.5509	-759.93048	353.0311	915.82861	-917.8717	201.61867	962.27637	-965.52271	209.32527	1019.15881	-855.21887	69.54266	957.51996	-631.84918	609.16125	1250.96387	-606.94556	453.60687	1219.67712	-645.68195	280.7847	1222.99072	-658.51257	77.39659	1170.87329	-707.43665	39.4296	1121.37512	-517.36469	39.24616	1168.04895	-591.57159	1718.16309	1130.44861	-1973.06543	1023.50739	3101.91431	-2012.49561	1021.94476	3140.81665	NaN	NaN	NaN
